Coordinates
version=1
nRows=10
nColumns=40
inDegrees=yes

Units are S.I. units (second, meters, Newtons, ...)
Angles are in degrees.

endheader
time	pelvis_tilt	pelvis_list	pelvis_rotation	pelvis_tx	pelvis_ty	pelvis_tz	hip_flexion_r	hip_adduction_r	hip_rotation_r	knee_angle_r	knee_angle_r_beta	ankle_angle_r	subtalar_angle_r	mtp_angle_r	hip_flexion_l	hip_adduction_l	hip_rotation_l	knee_angle_l	knee_angle_l_beta	ankle_angle_l	subtalar_angle_l	mtp_angle_l	lumbar_extension	lumbar_bending	lumbar_rotation	arm_flex_r	arm_add_r	arm_rot_r	elbow_flex_r	pro_sup_r	wrist_flex_r	wrist_dev_r	arm_flex_l	arm_add_l	arm_rot_l	elbow_flex_l	pro_sup_l	wrist_flex_l	wrist_dev_l
     56.97314286	     -1.85305898	     -4.77634412	      7.18821474	      0.93430273	      0.91301577	      0.56467907	     15.16955645	      5.49621297	    -10.46897652	     29.71532651	     29.71532651	     17.60237301	    -14.98184260	      0.19381082	     31.24284246	    -14.33251289	      3.50325538	     66.67978207	     66.67978207	      9.03233182	    -19.52818969	     20.22146516	    -11.01588366	      4.82054864	     -0.23687964	     26.55571773	    -16.64888836	    -10.94321515	     48.64200372	     45.66860031	      0.00000000	      0.00000000	      6.62418469	     -7.66163808	      0.35425719	     24.83890266	     45.84795689	      0.00000000	      0.00000000
     56.99128571	     -2.02301592	     -4.70621568	      7.80828866	      0.93187407	      0.91283087	      0.56478632	     15.08953835	      5.40827952	    -10.81936361	     29.65585637	     29.65585637	     18.17970881	    -15.02193662	      1.41076360	     32.22838142	    -13.94472639	      3.37077254	     64.56907032	     64.56907032	     10.93595557	    -19.52593726	     22.03489235	    -11.10180504	      4.64879150	      0.37375001	     27.29006931	    -17.78425968	    -10.46105818	     53.35879247	     45.48387260	      0.00000000	      0.00000000	      4.79760802	     -7.59646646	      3.02004348	     24.64837440	     45.30176173	      0.00000000	      0.00000000
     57.00942857	     -2.20697623	     -4.60570466	      8.39336596	      0.92938081	      0.91318098	      0.56454663	     14.84879333	      5.27457348	    -11.18712980	     29.24933322	     29.24933322	     18.25249185	    -15.11322051	      1.52706973	     32.92773867	    -13.45894450	      3.16208813	     61.70409682	     61.70409682	     11.94882846	    -19.50458623	     21.65300385	    -11.11500447	      4.48003660	      0.25673238	     29.75548373	    -18.04655073	    -10.66062107	     55.09146854	     45.44519469	      0.00000000	      0.00000000	      2.90835979	     -7.36365795	      3.59160824	     23.94946700	     45.16243230	      0.00000000	      0.00000000
     57.02757143	     -2.48016639	     -4.49870369	      9.00274933	      0.92673955	      0.91391289	      0.56400231	     14.58267158	      5.09962784	    -11.64658483	     28.61343446	     28.61343446	     18.25843427	    -15.00975569	      1.58810527	     33.50173689	    -12.77042076	      3.12266265	     58.22418169	     58.22418169	     12.55495098	    -19.45591510	     21.01163485	    -11.10272977	      4.32595982	      0.20461742	     32.08314208	    -18.36507471	    -10.71312207	     57.24059988	     45.38627733	      0.00000000	      0.00000000	      0.97205400	     -7.19994929	      4.32910851	     23.69846657	     44.98278579	      0.00000000	      0.00000000
     57.04571429	     -2.85636349	     -4.33685578	      9.55111591	      0.92410343	      0.91495476	      0.56314849	     14.26381084	      4.83536331	    -12.12880912	     27.68965111	     27.68965111	     17.90413710	    -14.87283176	      0.92521969	     33.86152245	    -11.92466372	      3.12248092	     54.12757136	     54.12757136	     12.25751831	    -19.36053413	     18.69459008	    -10.97906563	      4.12275146	      0.72403364	     33.80971266	    -19.42143414	    -10.64473758	     60.21524088	     45.34993976	      0.00000000	      0.00000000	     -1.43646744	     -8.45573831	     14.09730091	     26.01022155	     43.36297821	      0.00000000	      0.00000000
     57.06385714	     -3.38701065	     -4.16780686	     10.06404648	      0.92136018	      0.91614320	      0.56199474	     14.08692156	      4.54083373	    -12.54677106	     26.73301856	     26.73301856	     17.73797836	    -14.62690505	      1.11896741	     34.22167100	    -10.83891092	      3.45222273	     49.75857882	     49.75857882	     12.40534399	    -19.18278386	     18.67723915	    -10.61189574	      3.83596552	      1.07310381	     36.17503808	    -20.22008531	    -10.87430910	     61.49944606	     45.32794374	      0.00000000	      0.00000000	     -2.92064643	     -8.15491299	     14.20925146	     25.71485899	     43.33220762	      0.00000000	      0.00000000
     57.08200000	     -3.79476250	     -3.97273387	     10.59228611	      0.91890878	      0.91774455	      0.56055172	     13.53301962	      4.16489485	    -13.34674990	     25.41373925	     25.41373925	     17.46704613	    -13.69031901	      0.56482852	     34.01390956	     -9.81067556	      3.72103369	     44.67939237	     44.67939237	     10.78156168	    -18.88440482	     14.58691058	    -10.54973613	      3.65180686	      0.73778273	     38.36260616	    -20.41420170	    -10.44622853	     64.72846712	     45.22317105	      0.00000000	      0.00000000	     -5.13360065	     -8.20584904	     14.66322089	     26.68276546	     43.28941875	      0.00000000	      0.00000000
     57.10014286	     -4.27557502	     -3.77101953	     10.99258845	      0.91644539	      0.91935790	      0.55907930	     13.06649728	      3.88626683	    -13.72343458	     24.08091549	     24.08091549	     17.18634256	    -13.26290125	      0.70657576	     33.80086091	     -8.72855312	      4.21925622	     39.71824072	     39.71824072	     10.34199508	    -18.10190652	     14.41551547	    -10.29863156	      3.34767456	      1.12661065	     40.80845607	    -21.17502680	    -10.60212647	     65.95179418	     45.20230524	      0.00000000	      0.00000000	     -6.43328665	     -7.98445186	     14.85999529	     26.55709032	     43.25329187	      0.00000000	      0.00000000
     57.11828571	     -4.67014981	     -3.64379618	     11.38802854	      0.91434116	      0.92092717	      0.55748643	     12.42696971	      3.66739347	    -14.35634869	     22.63125941	     22.63125941	     16.92541173	    -12.39517603	      0.58568002	     33.30817029	     -7.88729818	      4.59798374	     34.66980446	     34.66980446	      9.65246325	    -16.57962915	     13.35718973	    -10.13438559	      3.17272954	      1.16531202	     43.24320520	    -21.54281505	    -10.53188289	     67.64323830	     45.15825754	      0.00000000	      0.00000000	     -7.93109352	     -7.84190544	     15.13593181	     26.62535350	     43.20246724	      0.00000000	      0.00000000
     57.13642857	     -5.11039308	     -3.65007105	     11.70169847	      0.91247275	      0.92178614	      0.55588001	     11.90670147	      3.53578394	    -15.14451075	     21.28338473	     21.28338473	     16.29653502	    -11.37857596	     -1.05344348	     32.65838259	     -7.38977354	      4.63867268	     29.38710321	     29.38710321	      6.67335484	    -14.91082158	      6.44668299	     -9.88844068	      3.14801227	      1.22793871	     45.55825966	    -22.14862942	     -9.71810437	     69.91811813	     45.09156436	      0.00000000	      0.00000000	     -9.94668297	     -8.13933213	     16.30779000	     28.75920997	     43.09147004	      0.00000000	      0.00000000
